<?xml version="1.0" standalone="no"?>
<!DOCTYPE svg PUBLIC "-//W3C//DTD SVG 20010904//EN"
 "http://www.w3.org/TR/2001/REC-SVG-20010904/DTD/svg10.dtd">
<svg version="1.0" xmlns="http://www.w3.org/2000/svg"
 width="700.000000pt" height="700.000000pt" viewBox="0 0 700.000000 700.000000"
 preserveAspectRatio="xMidYMid meet">
<metadata>
Created by potrace 1.11, written by Peter Selinger 2001-2013
</metadata>
<g transform="translate(0.000000,700.000000) scale(0.100000,-0.100000)"
fill="#000000" stroke="none">
<path d="M4600 6379 c-318 -300 -621 -469 -775 -433 -33 8 -43 18 -70 65 -51
93 -91 144 -172 218 -123 114 -294 190 -463 208 l-65 6 86 -91 c145 -154 201
-295 141 -355 -20 -20 -31 -21 -150 -21 -273 1 -486 94 -691 302 l-94 95 6
-134 c6 -132 29 -253 61 -331 9 -21 16 -40 16 -43 0 -3 -31 -5 -69 -5 -165 0
-457 -58 -651 -130 -189 -69 -366 -161 -560 -289 l-115 -76 132 -6 c138 -6
221 -23 230 -46 3 -8 -27 -47 -71 -93 -91 -95 -221 -269 -300 -400 -154 -254
-259 -541 -303 -825 -23 -146 -22 -440 0 -584 73 -459 275 -878 640 -1330 173
-214 543 -573 787 -765 43 -34 58 -42 47 -25 -22 33 -67 172 -67 205 0 24 7
18 51 -47 76 -111 146 -194 244 -292 187 -187 358 -286 553 -323 239 -44 409
-130 482 -243 l33 -50 31 38 c116 144 313 239 669 325 185 44 333 133 440 263
58 72 127 191 147 258 7 22 16 43 19 48 13 14 -8 -120 -28 -179 -11 -32 -19
-60 -18 -61 5 -5 261 216 379 328 463 438 821 938 1007 1406 318 799 149 1561
-489 2201 -55 56 -100 104 -100 107 0 4 34 22 76 41 92 43 203 68 262 59 23
-3 42 -2 42 2 0 30 -169 155 -295 220 -266 136 -525 194 -1017 229 -49 3 -88
10 -88 16 0 9 145 575 155 606 2 6 3 12 2 12 -1 -1 -40 -37 -87 -81z m491
-1412 c79 -38 133 -88 160 -149 20 -44 24 -69 24 -153 0 -92 -2 -104 -30 -153
-35 -64 -119 -143 -187 -178 -28 -14 -51 -24 -53 -22 -1 2 -13 23 -25 48 -84
167 -269 388 -377 449 -17 9 -15 12 12 41 43 45 131 103 195 129 79 31 205 26
281 -12z m-3170 -13 c72 -21 133 -57 196 -117 l52 -49 -47 -37 c-113 -90 -248
-264 -323 -416 l-31 -64 -40 22 c-64 35 -151 121 -183 179 -53 97 -45 265 17
359 13 19 51 53 86 76 92 62 174 76 273 47z m1198 -284 c-4 -58 -12 -118 -18
-133 -6 -16 -9 -33 -5 -38 16 -26 206 9 300 56 84 41 168 125 207 207 l25 53
7 -30 c34 -159 123 -235 276 -235 98 0 142 8 135 26 -4 9 2 14 17 14 16 0 11
5 -19 19 -35 16 -43 25 -53 64 -16 65 -14 117 4 117 8 0 51 -19 97 -43 297
-153 491 -428 563 -797 22 -113 36 -416 33 -678 l-3 -214 51 -24 c172 -81 296
-362 265 -595 -21 -157 -66 -253 -174 -366 -96 -100 -231 -184 -379 -232 -60
-20 -77 -32 -165 -119 -306 -302 -671 -439 -1003 -376 -227 43 -426 155 -640
360 l-115 111 -63 6 c-91 10 -242 63 -336 119 -200 120 -362 358 -374 548 -6
99 11 173 59 270 46 91 140 194 232 255 54 36 58 41 53 69 -29 156 -34 493
-11 673 46 351 167 617 369 811 82 79 214 168 293 198 l42 16 28 -33 c65 -80
144 -142 196 -154 25 -7 27 -5 27 21 0 41 25 130 52 188 l23 50 5 -40 c3 -22
2 -87 -1 -144z"/>
<path d="M2665 3871 c-179 -81 -128 -371 65 -371 150 0 233 201 133 321 -30
35 -94 69 -133 69 -14 0 -43 -9 -65 -19z"/>
<path d="M3925 3871 c-179 -81 -128 -371 65 -371 150 0 233 201 133 321 -30
35 -94 69 -133 69 -14 0 -43 -9 -65 -19z"/>
<path d="M3136 2965 c-127 -18 -181 -45 -214 -105 -18 -34 -22 -55 -18 -85 11
-86 158 -326 271 -441 170 -172 261 -171 435 5 72 73 195 242 239 329 33 64
44 133 31 182 -10 37 -17 44 -63 65 -90 41 -188 56 -392 60 -131 3 -221 0
-289 -10z"/>
</g>
</svg>
