<svg xmlns="http://www.w3.org/2000/svg" xmlns:xlink="http://www.w3.org/1999/xlink" width="200" height="200" viewBox="0 0 200 200">
  <defs>
    <path id="boar-a" d="M0,87.6627287 C5.08282028,83.8306663 8.87618895,80.293184 11.380106,77.0502819 C8.08356157,76.0630866 6.09066318,73.5893928 6.22965659,72.8380506 C10.0443299,70.105635 13.6173587,66.6822013 16.9487432,62.5677496 C13.7359045,61.0650236 11.8345628,59.3756794 12.0144327,57.9044918 C15.5808607,55.7173798 18.6548945,52.9865317 21.236534,49.7119475 C23.8483946,42.0454545 27.3972915,34.8897541 31.8832247,28.2448464 C11.380143,23.906687 20.6857011,1.69610948 23.5400899,0 C36.0192935,3.93221368 43.7472419,8.21075585 46.7239353,12.8356265 C73.6020876,-1.46624985 100.609346,-1.46624985 127.745709,12.8356265 C132.159035,3.72704231 149.268504,0.0173861187 151.470695,0.508908378 C158.702985,16.482568 155.596091,25.7278807 142.150011,28.2448464 C146.690451,34.9632866 150.496977,42.2788214 153.569588,50.1914509 C155.719306,52.695964 158.547333,55.2669776 162.053668,57.9044918 C162.467582,59.1411829 160.043625,61.0351332 157.439686,62.363025 C159.621495,65.7978151 163.077757,69.1979664 167.808471,72.5634789 C167.941924,73.6810389 166.254374,75.1387706 162.74582,76.936674 C165.94674,80.759809 169.596652,84.1721899 173.695555,87.1738167 C174.362363,88.7796299 167.816226,93.4561169 160.049315,93.7555739 C154.649439,123.665946 130.841006,138.621132 88.6240158,138.621132 C46.4070256,138.621132 21.3534844,123.812261 13.4633921,94.1945193 C6.08200187,92.1897149 1.59420449,90.0124513 0,87.6627287 Z"/>
  </defs>
  <g fill="none" fill-rule="evenodd" transform="translate(13 33)">
    <mask id="boar-b" fill="#fff">
      <use xlink:href="#boar-a"/>
    </mask>
    <use fill="#DAA666" xlink:href="#boar-a"/>
    <path fill="#A36E2C" d="M65.5190673,5.12987122 C61.3625697,14.7574855 61.1445966,23.170125 64.865148,30.3677897 C68.4273163,26.0335949 70.9816565,12.036098 69.0991146,2.98283262 L65.5190673,5.12987122 Z" mask="url(#boar-b)"/>
    <path fill="#A36E2C" d="M107.810734,5.12987122 C103.654236,14.7574855 103.436263,23.170125 107.156815,30.3677897 C110.718983,26.0335949 113.273323,12.036098 111.390781,2.98283262 L107.810734,5.12987122 Z" mask="url(#boar-b)" transform="matrix(-1 0 0 1 216.548 0)"/>
    <path fill="#A36E2C" d="M86.203366,1.78969957 C82.7511901,13.0523857 83.3176014,22.926934 87.9025997,31.4133445 C92.7010182,22.6113005 93.1271516,12.7367522 89.1810002,1.78969957 L86.203366,1.78969957 Z" mask="url(#boar-b)"/>
    <path fill="#C99454" d="M57,99 C58.9633973,96.6685569 61.652881,89.9977408 65.0684514,78.9875517 C70.1918068,62.4722681 103.294163,63.5450282 108.082904,78.9875517 C111.275398,89.2825674 114.247763,95.6815361 117,98.1844579 L57,99 Z"/>
    <path fill="#FACCAB" d="M134.754903,21.7172718 C142.786537,15.9453652 145.853756,16.4908361 143.95656,23.3536845 C143.354025,25.533273 152.562985,22.1444577 147.445736,14.0301638 C145.005559,10.160837 139.856981,11.8224764 132,19.0150819 L134.754903,21.7172718 Z"/>
    <path fill="#FACCAB" d="M27.8437737,21.2433571 C36.1330172,15.3255087 39.3259478,15.9874921 37.4225655,23.2293074 C36.8180658,25.529253 45.50348,22.7309344 40.3695453,14.1685686 C37.9214123,10.0855774 33.1315639,11.7681925 26,19.2164137 L27.8437737,21.2433571 Z" transform="matrix(-1 0 0 1 68 0)"/>
    <g fill="#1E1E1E" transform="translate(49 64)">
      <ellipse cx="68.875" cy="8.5" rx="7.125" ry="8.5"/>
      <ellipse cx="7.125" cy="8.5" rx="7.125" ry="8.5"/>
    </g>
    <path fill="#FACCAB" d="M87.6324282,79 C102.126453,79 128.40143,99.1106643 122.017925,115.553384 C115.744269,131.713151 63.8488292,132.578947 53.5623838,115.553384 C45.0935688,101.536263 73.1384034,79 87.6324282,79 Z"/>
    <path fill="#87684C" d="M73.7785388,114.065177 C78.4284998,114.038796 79.2251679,109.067209 79.2446474,105.652627 C79.264127,102.238045 76.3120316,97.0428478 73.4683854,96.9737337 C70.6247392,96.9046196 68.4275557,102.297335 68.4080636,105.714106 C68.3885715,109.130876 69.1285777,114.091557 73.7785388,114.065177 Z" transform="rotate(32 73.826 105.52)"/>
    <path fill="#87684C" d="M100.969335,114.065177 C105.619296,114.038796 106.415964,109.067209 106.435444,105.652627 C106.454923,102.238045 103.502828,97.0428478 100.659182,96.9737337 C97.8155356,96.9046196 95.618352,102.297335 95.5988599,105.714106 C95.5793679,109.130876 96.3193741,114.091557 100.969335,114.065177 Z" transform="scale(-1 1) rotate(32 0 -246.769)"/>
  </g>
</svg>
