<svg xmlns="http://www.w3.org/2000/svg" xmlns:xlink="http://www.w3.org/1999/xlink" width="200" height="200" viewBox="0 0 200 200">
  <defs>
    <path id="cat-a" d="M0,67.4777705 C7.55091016,64.6569362 15.1684307,56.0760389 22.8525615,41.7350785 C34.3787577,20.2236378 49.8773955,3.18529965e-14 93.592742,0 C137.308089,-2.99661498e-14 158.572734,23.2293402 167.546296,41.7350785 C173.52867,54.0722373 180.282858,62.6531347 187.808859,67.4777705 C174.213891,109.604359 142.808519,130.667653 93.592742,130.667653 C44.3769655,130.667653 13.1793848,109.604359 0,67.4777705 Z"/>
  </defs>
  <g fill="none" fill-rule="evenodd" transform="translate(6 39)">
    <path fill="#DCA852" d="M132 10.7535734C150.604065 4 166.389101 2.31160664 179.355108 5.68839336 184.77115 20.5010706 181.869222 35.9382728 170.649326 52L132 10.7535734zM56 8.98686413C40.7005106 2.28574431 24.6427019.404920763 7.82657401 3.34439349 3.52599459 18.2583981 6.81954354 34.4769337 17.7072209 52L56 8.98686413z"/>
    <path fill="#FFD37A" d="M25.3308658,46 C33.7950101,37.3714095 37.2230096,24.7047428 35.6148645,8 C33.9250926,8.01929411 24.907935,9.0270404 21.3981461,13.4305503 L25.3308658,13.4305503 C19.3389398,15.6033641 15.3149997,18.0756489 13.2590455,20.8474047 L20.0591092,21.5103306 L11,25.3454063 L25.3308658,46 Z" transform="matrix(-1 0 0 1 47 0)"/>
    <path fill="#FFD37A" d="M166.330866,46 C174.79501,37.3714095 178.22301,24.7047428 176.614865,8 C174.925093,8.01929411 165.907935,9.0270404 162.398146,13.4305503 L166.330866,13.4305503 C160.33894,15.6033641 156.315,18.0756489 154.259046,20.8474047 L161.059109,21.5103306 L152,25.3454063 L166.330866,46 Z"/>
    <path fill="#FFD37A" d="M0,67.649397 C7.55859502,64.821388 15.1838682,56.2186656 22.8758195,41.8412296 C34.4137464,20.2750757 49.9281578,3.19340131e-14 93.6879951,0 C137.447833,-3.00423673e-14 158.73412,23.2884229 167.716814,41.8412296 C173.705277,54.2097674 180.466339,62.8124899 188,67.649397 C174.391196,109.883132 142.953861,131 93.6879951,131 C44.4221297,131 13.192798,109.883132 0,67.649397 Z"/>
    <ellipse cx="94.5" cy="79.5" fill="#FFF" rx="28.5" ry="20.5"/>
    <circle cx="136" cy="76" r="7" fill="#DCA852"/>
    <circle cx="52" cy="76" r="7" fill="#DCA852"/>
    <mask id="cat-b" fill="#fff">
      <use xlink:href="#cat-a"/>
    </mask>
    <path fill="#DCA852" d="M65.5151515,2.2850767 C74.8439839,15.8268695 79.8618052,22.4374502 80.5686152,22.1168189 C81.6288303,21.6358719 79.7953076,4.66156165 77.3672927,-0.56992098 L65.5151515,2.2850767 Z" mask="url(#cat-b)"/>
    <path fill="#DCA852" d="M105.687112,2.461977 C114.247,15.5793946 118.84665,21.9864007 119.486063,21.6829954 C120.445181,21.2278875 118.54724,4.08939662 116.355369,-0.851374972 L105.687112,2.461977 Z" mask="url(#cat-b)" transform="scale(-1 1) rotate(4 0 -3217.291)"/>
    <path fill="#DCA852" d="M86.8787879,-2.8172043 C87.3781839,10.5898795 89.9516525,17.2934215 94.5991938,17.2934215 C99.246735,17.2934215 101.477501,10.5898795 101.291492,-2.8172043 L86.8787879,-2.8172043 Z" mask="url(#cat-b)"/>
    <g stroke="#C69749" stroke-linecap="round" transform="translate(6 65)">
      <path d="M76.9358958 4.93907449C44.2829279-1.64635816 19.5869627-1.64635816 2.848 4.93907449M77.942969 7.74694313C41.2842334 4.60437239 15.3488149 7.48211582.136713356 16.3801734M77.942969 9.88063201C50.0613605 10.3390943 29.1511301 16.2606248 15.2122781 27.6452236M101.474033 4.93907449C132.751086-.188781294 157.477626-.188781294 175.653654 4.93907449M100.299584 7.83627454C130.779502 3.60530503 156.640009 6.45327132 177.881106 16.3801734M100.299584 10.2369582C124.140934 8.56794635 145.109539 14.3707015 163.205399 27.6452236"/>
    </g>
    <ellipse cx="67" cy="53" fill="#1E1E1E" rx="7" ry="8"/>
    <ellipse cx="120" cy="53" fill="#1E1E1E" rx="7" ry="8"/>
    <polyline stroke="#000" stroke-linecap="round" points="89 85 94.968 78 101 85"/>
    <path stroke="#000" d="M94.5,80 L94.5,70"/>
    <path fill="#000" d="M87.95568,67.616703 C89.1819265,71.8722343 91.3633439,74 94.4999324,74 C97.6365195,74 99.8179364,71.8722363 101.044183,67.6167089 L101.044189,67.6167105 C101.197111,67.0860157 100.890865,66.531835 100.36017,66.3789132 C100.325966,66.3690571 100.29126,66.3610343 100.2562,66.3548791 C98.908613,66.118293 96.9898571,66 94.4999324,66 C92.0100081,66 90.0912525,66.118293 88.7436655,66.354879 L88.7436653,66.3548778 C88.1996994,66.4503779 87.836146,66.9687676 87.9316462,67.5127335 C87.9378013,67.5477931 87.945824,67.582499 87.95568,67.616703 Z"/>
  </g>
</svg>
