<svg xmlns="http://www.w3.org/2000/svg" xmlns:xlink="http://www.w3.org/1999/xlink" width="200" height="200" viewBox="0 0 200 200">
  <defs>
    <path id="dog-a" d="M60.5739012,0.938235652 L123.581306,0.938235652 L184.227986,61.8893205 C171.287604,80.7716651 140.558315,102.131236 92.040119,125.968034 C48.454964,104.361549 18.0308676,83.5232495 0.767829686,63.4531348 L60.5739012,0.938235652 Z"/>
  </defs>
  <g fill="none" fill-rule="evenodd" transform="translate(8 27)">
    <path fill="#D37120" d="M60.9243159,27.501428 L31.4384989,59.9943836 C23.9321407,23.7624227 22.3511159,3.98851885 26.6954243,0.672672117 C31.0397328,-2.64317461 42.4493634,6.29974402 60.9243159,27.501428 Z M122.883212,27.501428 C141.358164,6.29974402 152.767795,-2.64317461 157.112103,0.672672117 C161.456412,3.98851885 159.875387,23.7624227 152.369029,59.9943836 L122.883212,27.501428 Z"/>
    <g transform="translate(0 26)">
      <mask id="dog-b" fill="#fff">
        <use xlink:href="#dog-a"/>
      </mask>
      <use fill="#F1A02B" xlink:href="#dog-a"/>
      <path fill="#FFF" d="M92.2446407,25.2032864 C91.1125898,44.9223565 87.8716768,56.9975628 82.5219019,61.4289054 C74.4972395,68.0759193 48.2973486,50.0036887 37.9573252,70.0491775 C30.3091577,85.6230873 48.2692302,105.208219 91.8375427,128.804572 C135.705556,105.739051 153.79769,86.1539201 146.113942,70.0491775 C136.416324,50.6393878 105.322607,66.6828372 100.745988,61.4289054 C97.6949082,57.9262842 94.8611259,45.8510779 92.2446407,25.2032864 Z" mask="url(#dog-b)"/>
    </g>
    <path fill="#431C1F" d="M92.5,88 C107.788465,88 109,89.6501015 109,93.7405335 C109,97.8309656 102.365055,106 92.2027558,106 C82.0404567,106 76,97.8717801 76,93.7405335 C76,89.609287 77.211535,88 92.5,88 Z"/>
    <g fill="#1E1E1E" transform="translate(60 68)">
      <ellipse cx="8.043" cy="8.5" rx="8.043" ry="8.5"/>
      <ellipse cx="54.957" cy="8.5" rx="8.043" ry="8.5"/>
    </g>
    <g stroke="#431C1F" stroke-width="2" transform="translate(84 103)">
      <polyline stroke-linecap="round" points=".5 18 8.457 8 16.5 18"/>
      <path d="M8.5,9 L8.5,0"/>
    </g>
  </g>
</svg>
