<svg xmlns="http://www.w3.org/2000/svg" width="200" height="200"><g fill="none" fill-rule="evenodd" transform="translate(5 32)"><path fill="#BBDEFB" d="M59.026 81.924C67.18 74.274 73 60.603 73 43.6 73 17.002 56.658 7 36.5 7S0 22.348 0 43.6c0 17.156 18.553 35.966 33.672 42.58 2.6 7.017 10.267 18.82 21.743 18.82 14.514 0 11.502-4.492 11.502-9.483 0-3.833-3.85-10.642-7.891-13.593zm71.948-3C122.82 71.274 117 57.603 117 40.6 117 14.002 133.342 4 153.5 4S190 19.348 190 40.6c0 17.156-18.553 35.966-33.672 42.58-2.6 7.017-10.267 18.82-21.743 18.82-14.514 0-11.502-4.492-11.502-9.483 0-3.833 3.85-10.642 7.891-13.593z"/><path fill="#E3F2FD" d="M70.358 106.333C53.534 96.468 39 78.07 39 57c0-31.48 4.142-57 56.5-57S152 25.52 152 57c0 27.4-24.583 50.286-46.815 55.757-20.238 19.73-44.013 18.376-49.92 18.376-6.283 0-15.73 3.694-20.07 3.86-4.342.166-7.195-2.665-7.195-6.61 0-2.63 1.74-5.67 5.218-9.12 0-9.334-.584-15.263 5.117-15.263 5.7 0 7.564 10.033 16.93 10.033 5.47 0 10.501-2.567 15.093-7.7z"/><ellipse cx="120" cy="73.5" fill="#1E1E1E" rx="5" ry="5.5"/><ellipse cx="71" cy="74.5" fill="#1E1E1E" rx="5" ry="5.5"/><path fill="#BBDEFB" d="M85.013 95.308C87.935 93.103 91.107 92 94.53 92c3.423 0 6.906 1.103 10.449 3.308.09.529-.108.754-.594.677-.73-.115-4.095-3.007-9.855-3.007-3.84 0-6.76 1.003-8.762 3.007-.578-.006-.83-.231-.755-.677z" opacity=".7"/><path fill="#BBDEFB" d="M80.019 90.962C84.256 87.654 88.856 86 93.819 86c4.963 0 10.013 1.654 15.15 4.962.131.793-.156 1.132-.861 1.016-1.059-.174-5.937-4.51-14.289-4.51-5.568 0-9.803 1.503-12.705 4.51-.839-.009-1.204-.348-1.095-1.016z" opacity=".7"/></g></svg>