<svg xmlns="http://www.w3.org/2000/svg" width="200" height="200"><g fill="none" fill-rule="evenodd" transform="translate(25 20)"><path fill="#FFFCE1" d="M75 157c53.583 0 75-27.534 75-61.5S116.421 34 75 34 0 61.534 0 95.5 21.417 157 75 157z"/><path fill="#F44336" d="M94.494 36.612c5.67-8.908 8.506-15.493 8.506-19.755 0-6.51-5.602-11.752-9.304-11.853-2.63.067-4.668 1.735-6.114 5.005C85.182 3.336 81.55 0 76.684 0c-6.51.193-10.675 4.934-12.494 14.223-1.431-4.82-5.064-7.191-10.899-7.111-8.857-.12-15.648 10.443-12.494 20.017C47.715 48.574 65.794 59 68.177 59c2.485 0 8.52-22.878 23.924-22.915 1.02.025 1.817.2 2.393.527zm-17.53 119.275c2.029 3.398 5.429 5.294 8.593 4.446 4.07-1.09 6.207-6.308 4.775-11.653-1.433-5.346-2.35-9.745-9.962-7.705-1.437.385-2.552.849-3.407 1.385-.855-.536-1.97-1-3.406-1.385-7.612-2.04-8.53 2.359-9.963 7.705-1.432 5.345.706 10.563 4.776 11.653 3.163.848 6.563-1.048 8.593-4.446z"/><path fill="#FFA726" d="M75 144c9.267 0 26-8.244 26-14 0-6.785-3.663-12.02-26-12-22.337.02-26 5.215-26 12 0 5.756 16.733 14 26 14z"/><ellipse cx="103.5" cy="106" fill="#1E1E1E" rx="5.5" ry="6"/><ellipse cx="46.5" cy="106" fill="#1E1E1E" rx="5.5" ry="6"/></g></svg>