<svg xmlns="http://www.w3.org/2000/svg" width="200" height="200" viewBox="0 0 200 200">
  <g fill="none" fill-rule="evenodd" transform="translate(27 11)">
    <g transform="translate(7)">
      <path fill="#FFFCF3" d="M21.3133192,83.5147127 C-1.82631264,41.4279781 -6.12411522,14.5745619 8.41991145,2.95446401 C22.9639381,-8.66563385 36.6672744,13.9912151 49.5299204,70.9250109 L21.3133192,83.5147127 Z"/>
      <path fill="#FAB8BA" d="M40.8305758,73.4716405 C41.6901502,53.9246819 27.450745,3.78788893 12.2403079,11.8748158 C-2.97012923,19.9617426 19.1418748,70.8973549 25.4625841,80.7920333 L40.8305758,73.4716405 Z"/>
    </g>
    <g transform="translate(91)">
      <path fill="#FFFCF3" d="M21.3133192,83.5147127 C-1.82631264,41.4279781 -6.12411522,14.5745619 8.41991145,2.95446401 C22.9639381,-8.66563385 36.6672744,13.9912151 49.5299204,70.9250109 L21.3133192,83.5147127 Z" transform="matrix(-1 0 0 1 49.53 0)"/>
      <path fill="#FAB8BA" d="M42.4928867,73.4716405 C43.3524611,53.9246819 29.1130559,3.78788893 13.9026188,11.8748158 C-1.30781835,19.9617426 20.8041857,70.8973549 27.124895,80.7920333 L42.4928867,73.4716405 Z" transform="matrix(-1 0 0 1 51.192 0)"/>
    </g>
    <path fill="#FFFCF3" d="M73,175 C127.574266,175 146,146.288095 146,120 C146,93.7119052 109.833489,65 73,65 C36.1665106,65 -5.47056482e-14,93.696104 -5.68434189e-14,120 C-5.68434189e-14,146.303896 18.4257336,175 73,175 Z"/>
    <g fill="#1E1E1E" transform="translate(41 123)">
      <ellipse cx="8.043" cy="8.5" rx="8.043" ry="8.5"/>
      <ellipse cx="56.043" cy="8.5" rx="8.043" ry="8.5"/>
    </g>
    <path fill="#000" d="M73,144 C76.819461,144 81,141.985281 81,139.5 C81,137.014719 79.600203,135 73,135 C66.399797,135 65,137.014719 65,139.5 C65,141.985281 69.180539,144 73,144 Z"/>
    <g stroke="#000" stroke-width="2" transform="translate(65.5 142)">
      <polyline stroke-linecap="round" points=".5 11 7.463 5 14.5 11"/>
      <path d="M7.5,5 L7.5,0"/>
    </g>
    <ellipse cx="104" cy="148" fill="#FAB8BA" rx="7" ry="5"/>
    <ellipse cx="42" cy="148" fill="#FAB8BA" rx="7" ry="5"/>
  </g>
</svg>
