<svg fill="#fff" height="48" viewBox="0 0 24 24" width="48" xmlns="http://www.w3.org/2000/svg"><path d="m9.6679688 2-.4921876 2.5234375c-.8207588.3103637-1.579677.7439666-2.2460937 1.2910156l-2.4238281-.8359375-2.3320313 4.0429688 1.9394531 1.6855466c-.0687659.421955-.1132812.851588-.1132812 1.292969s.0445153.871014.1132812 1.292969l-1.9394531 1.685547 2.3320313 4.042968 2.4238281-.835937c.6664167.547049 1.4253349.980652 2.2460937 1.291015l.4921876 2.523438h4.6640622l.492188-2.523438c.820759-.310363 1.579677-.743966 2.246093-1.291015l2.423829.835937 2.332031-4.042968-1.939453-1.685547c.068766-.421955.113281-.851588.113281-1.292969s-.044515-.871014-.113281-1.292969l1.939453-1.6855466-2.332031-4.0429688-2.423829.8359375c-.666416-.547049-1.425334-.9806519-2.246093-1.2910156l-.492188-2.5234375zm2.3320312 6c2.209 0 4 1.791 4 4s-1.791 4-4 4-4-1.791-4-4 1.791-4 4-4z"/></svg>