<svg xmlns="http://www.w3.org/2000/svg" width="200" height="200"><g fill="none" fill-rule="evenodd" transform="translate(26 20)"><path fill="#F44336" d="M85.695 33.938c.735 3.855 2.925 6.91 6.169 7.964 5.447 1.77 11.805-2.772 14.2-10.144 2.396-7.372-.078-14.783-5.526-16.553-3.999-1.3-8.488.802-11.54 4.927C88.868 8.98 82.875 0 75.5 0 68.044 0 62 9.178 62 20.5v.109c-3.036-3.777-7.31-5.647-11.136-4.404-5.448 1.77-7.922 9.181-5.527 16.553 2.395 7.372 8.753 11.914 14.201 10.144 3.315-1.078 5.53-4.244 6.215-8.219C68.21 38.576 71.669 41 75.5 41c4.07 0 7.72-2.736 10.195-7.062z"/><path fill="#FFF176" d="M75 155c53.583 0 75-27.31 75-61s-33.579-61-75-61S0 60.31 0 94s21.417 61 75 61z"/><path fill="#F44336" d="M75.32 155.737c2.054 3.381 5.274 5.281 8.223 4.491 3.919-1.05 5.877-6.452 4.373-12.065-1.504-5.613-2.49-10.225-9.82-8.261-1.12.3-2.035.659-2.776 1.072-.741-.413-1.656-.772-2.777-1.072-7.33-1.964-8.315 2.648-9.819 8.261-1.504 5.613.454 11.015 4.373 12.065 2.95.79 6.17-1.11 8.223-4.491z"/><path fill="#FFA726" d="M75.5 143c9.446 0 26.5-8.244 26.5-14 0-6.785-3.734-12.02-26.5-12-22.766.02-26.5 5.215-26.5 12 0 5.756 17.054 14 26.5 14z"/><ellipse cx="103.5" cy="105" fill="#1E1E1E" rx="5.5" ry="6"/><ellipse cx="46.5" cy="106" fill="#1E1E1E" rx="5.5" ry="6"/></g></svg>