<svg xmlns="http://www.w3.org/2000/svg" width="200" height="200"><g fill="none" fill-rule="evenodd" transform="translate(26 13)"><path fill="#795548" d="M93.022 15.904C88.477 15.306 85 11.995 85 8c0-4.418 4.253-8 9.5-8s9.5 3.582 9.5 8c0 2.21-1.064 4.21-2.784 5.658 2.373 5.566 3.198 13.68 2.476 24.342h-8.615c1.699-5.51 1.014-12.876-2.055-22.096zm-39.979-.194C57.055 14.774 60 11.676 60 8c0-4.418-4.253-8-9.5-8S41 3.582 41 8c0 2.54 1.406 4.804 3.598 6.27-2.227 5.542-3.022 13.452-2.386 23.73h8.844c-1.791-5.549-1.129-12.979 1.987-22.29z"/><g opacity=".7"><path fill="#FFD54F" d="M107 40.339c11.719-9.143 25.052-10.768 40-4.874C143.145 45.822 138.051 51 131.72 51c-9.5 0-12.744-3.2-15.726-3.173-1.988.017-3.295.083-3.922.197L107 40.34z"/><path fill="#FFEEA0" d="M110 43.994c10.508-6.192 21.508-8.272 33-6.242C140.652 44.584 137.044 48 132.176 48c-7.302 0-13.99-1.114-16.283-1.105-1.529.006-2.606.16-3.232.464L110 43.994z"/></g><g opacity=".7"><path fill="#FFD54F" d="M40 40.339c-11.719-9.143-25.052-10.768-40-4.874C3.855 45.822 8.949 51 15.28 51c9.5 0 12.744-3.2 15.726-3.173 1.988.017 3.295.083 3.922.197L40 40.34z"/><path fill="#FFEEA0" d="M38 43.994c-10.508-6.192-21.508-8.272-33-6.242C7.348 44.584 10.956 48 15.824 48c7.302 0 13.99-1.114 16.283-1.105 1.529.006 2.606.16 3.232.464L38 43.994z"/></g><path fill="#FFD54F" d="M73.5 153c88.591 0 59.39-12.545 59-53 .39-40.277-26.2-73-59-73s-59.39 32.723-59 73c-.39 40.455-29.591 53 59 53z"/><path d="M85.294 28.441c9.704 2.406 18.547 7.724 25.888 15.177-2.912 3.21-5.14 4.901-6.687 5.077-2.658.302-6.31-.07-8.015 0-1.706.07-2.35 1.305-7.51 1.305-5.159 0-6.47-5.436-6.47-10.822 0-3.014.931-6.593 2.794-10.737zm29.992 19.758c5.612 6.878 10.094 15.136 13.078 24.323-4.849 1.892-10.455-1.9-13.811-10.238-2.986-6.239-2.679-12.536.685-14.064l.048-.021zm14.493 29.186c1.838 7.122 2.798 14.723 2.721 22.615.033 3.383.267 6.571.617 9.573-3.732-1.04-7.408-7.114-8.692-14.855-1.478-8.91.772-16.655 5.027-17.298a3.59 3.59 0 0 1 .327-.035zM21.139 65.838c4.337-10.175 10.6-18.924 18.198-25.528 1.86 3.725 1.46 13.874-1.132 18.158-2.948 4.871-12.786 10.546-16.328 8.077a3.097 3.097 0 0 1-.739-.707zm-6.986 41.11A87.87 87.87 0 0 0 14.5 100a87.668 87.668 0 0 1 1.881-19.04c.362-.006.734.007 1.119.04 2.775.295 9.69.645 14 4 3.587 3.658 4.484 10.465 4 16-1.034 6.974-12.92 6.287-21 6a33.204 33.204 0 0 1-.347-.052z" fill="#CD7B28"/><ellipse cx="74" cy="139.5" fill="#FFEEA0" rx="67" ry="34.5"/><circle cx="95" cy="131" r="4" fill="#795548"/><circle cx="54" cy="131" r="4" fill="#795548"/><ellipse cx="100" cy="88.5" fill="#1E1E1E" rx="6" ry="6.5"/><ellipse cx="44" cy="88.5" fill="#1E1E1E" rx="6" ry="6.5"/></g></svg>