<svg xmlns="http://www.w3.org/2000/svg" width="200" height="200"><g fill="none" fill-rule="evenodd" transform="translate(20 15)"><path fill="#FF5722" fill-rule="nonzero" d="M73.628 13.907c-.101.015-15.052 3.6-26.336-11.069-.122-.113-1.008 8.181 2.266 14.758.065.118-17.812-2.133-40.496 14.474.14-.02 10.422-.7 11.044 1.42.028.13-58.093 51.643 23.221 115.508-.057.03-2.48-4.117-2.548-7.662-.08-.01 10.35 17.497 24.07 19.866 11.514 1.896 14.085 6.636 14.726 8.23.039.39.068.568 0 .568.068 0 3.378-7.287 19.257-10.5 15.678-3.008 18.514-17.404 18.407-17.313.107-.09-.129 6.189-2.266 8.23.128.121 82.98-60.959 23.505-116.076.084.02 6.141-4.156 11.327-2.555.103-.061-8.554-12.828-40.495-13.339L114.124 0c.06 0-17.047 18.158-26.053 14.758C88.212 14.9 83.13 1.54 67.115.85c.118.067 10.164 8.924 6.513 13.056z"/><g fill-rule="nonzero"><path fill="#FFB74D" d="M30.59 63S34.318 53.572 42 48.285c0 0-8.261-10.75-17.36-1.586 0 0-6.354 10.427 5.95 16.301z"/><path fill="#FFCCBC" d="M37 51.061s-4.52-4.637-7.65 0c0 0-2.06 4.088 3.825 4.939L37 51.061z"/></g><g fill-rule="nonzero"><path fill="#FFB74D" d="M123.01 62s-3.922-9.428-12.01-14.715c0 0 8.696-10.75 18.273-1.586 0 0 6.69 10.427-6.263 16.301z"/><path fill="#FFCCBC" d="M116 50.061s4.52-4.637 7.65 0c0 0 2.06 4.088-3.825 4.939L116 50.061z"/></g><path fill="#FFB74D" fill-rule="nonzero" d="M59.709 48.262c.105.04 2.994 4.701 6.996 5.654-.005-.008.287-4.73 2.519-7.916.073 0 .306 4.662-.28 7.916.12-.008-.318 2.175-.84 2.544.084.133 12.193 1.43 15.672-9.612.051-.08-.503 10.807 12.314 7.633-.008.135-2.955-1.37-2.24-6.502.131.116 17.958 5.014 19.87 29.118-.044-.086.685 14.52 0 21.485-.774 6.784-22.715 15.34-37.78 14.418-14.988-1.084-35.879-14.627-35.82-14.7-.059.073-8.024-38.963 19.589-50.038z"/><path fill="#FFA726" fill-rule="nonzero" d="M64 102.581c0-.045 1.094-24.414 11.304-29.023C85.267 68.734 90 102.624 90 102.581L85.196 109H68.522L64 102.581z"/><path fill="#FFF59D" fill-rule="nonzero" d="M89.644 103.25c.015.026 21.084-11.775 28.833-2.557 7.684 9.504 3.257 19.027 3.392 19.034-.135-.007-2.2 9.221-16.96 13.353.064.039-24.723 31.272-52.578 0-.03.039-16.939-.257-22.048-17.33.063.125-3.064-10.138 9.61-17.898-.133.04 10.342-4.1 23.463 5.398 12.965 9.609 26.303.026 26.288 0z"/><path fill="#1E1E1E" fill-rule="nonzero" d="M90.429 102.538c-.042-.026-3.129-2.574-13.143-2.538.064.023-6.17-.27-11.429 1.128-.016.125-4.152 1.736-2.571 5.923 1.836 4.044 6.511 12.275 12 14.667 5.54 2.353 12.914-10.066 12.857-10.154.057.088 4.432-5.449 2.286-9.026z"/><g fill-rule="nonzero"><path fill="#FE7F29" d="M66 19.925S30.294 18.155 12 31c.03 0 18.734-18.977 54-11.075zM68 1s18.565 9.72 19 15c0 0-2.727-12.51-19-15zm44 18.115S133.97 16.993 147 31c0 0-18.201-12.447-35-11.885zM140 41s35.596 32.934 6.674 70c0 0 18.316-27.732-6.674-70zM12.464 51S-7.838 85.743 22 127c0 0-40.047-45.66-9.536-76z"/><path fill="#FD7E29" d="M89.318 41S89.443 52.308 97 53.818c0 0-18.312 2.712-7.682-12.818zM83 41.779s-7.884-1.261-8.844 6.187C73.167 55.414 69 56 69 56s2.218-2.639 1.11-4.78c-1.11-2.17 1.108-5.981 1.108-5.981s4.497-8.943 11.782-3.46z"/><path fill="#686868" d="M80 102.237s-10.82-.73-13.383 2.512c0 0 .984 7.155 4.024 10.251 0 0-7.78-5.49-5.067-10.981C68.257 98.499 80 102.237 80 102.237z"/><path fill="#ECD876" d="M77 123s9.01 10.7 22 8.108c.03 0-14.427 7.746-22-8.108zm-1 0s-8.894 10.226-22 8.538c0 0 15.096 6.687 22-8.538z"/></g><ellipse cx="94" cy="79.5" fill="#1E1E1E" rx="5" ry="5.5"/><ellipse cx="58" cy="79.5" fill="#1E1E1E" rx="5" ry="5.5"/></g></svg>