<svg xmlns="http://www.w3.org/2000/svg" width="40" height="40" viewBox="0 0 40 40">
  <path fill="#FFF" d="M25.5909944,4.40625 C22.8705441,1.6875 19.1369606,0 14.9906191,0 C6.69793621,0 0,6.7125 0,15 C0,23.2875 6.69793621,30 14.9906191,30 C21.988743,30 27.8236398,25.21875 29.4934334,18.75 L25.5909944,18.75 C24.0525328,23.11875 19.8874296,26.25 14.9906191,26.25 C8.7804878,26.25 3.73358349,21.20625 3.73358349,15 C3.73358349,8.79375 8.7804878,3.75 14.9906191,3.75 C18.1050657,3.75 20.8818011,5.04375 22.9080675,7.0875 L16.8667917,13.125 L30,13.125 L30,0 L25.5909944,4.40625 Z" transform="matrix(-1 0 0 1 35 5)"/>
</svg>
